<svg width="14" height="13" viewBox="0 0 14 13" fill="none" xmlns="http://www.w3.org/2000/svg">
<path d="M6.68219 10.5139L3.12794 12.6602C3.0235 12.7118 2.92657 12.7326 2.83714 12.7228C2.74836 12.7124 2.66187 12.6817 2.57767 12.6308C2.49281 12.5786 2.42884 12.5048 2.38576 12.4095C2.34268 12.3142 2.33876 12.2101 2.37401 12.0972L3.31985 8.07297L0.191527 5.36074C0.103405 5.28894 0.04531 5.2031 0.0172419 5.10323C-0.0108263 5.00336 -0.00462516 4.90773 0.0358454 4.81635C0.0763159 4.72496 0.130169 4.6499 0.197402 4.59115C0.265289 4.53436 0.356674 4.49584 0.471559 4.47561L4.59958 4.11529L6.20927 0.30451C6.25365 0.196805 6.31763 0.119128 6.40118 0.0714764C6.48473 0.0238257 6.5784 0 6.68219 0C6.78598 0 6.87998 0.0238257 6.96418 0.0714764C7.04838 0.119128 7.11203 0.196805 7.15511 0.30451L8.76478 4.11529L12.8918 4.47561C13.0074 4.49519 13.0991 4.53403 13.167 4.59212C13.2348 4.64957 13.289 4.72431 13.3295 4.81635C13.3694 4.90773 13.3752 5.00336 13.3471 5.10323C13.319 5.2031 13.261 5.28894 13.1729 5.36074L10.0445 8.07297L10.9904 12.0972C11.0269 12.2088 11.0233 12.3125 10.9796 12.4085C10.9359 12.5045 10.8715 12.5782 10.7867 12.6298C10.7031 12.6821 10.6167 12.7131 10.5272 12.7228C10.4384 12.7326 10.3419 12.7118 10.2374 12.6602L6.68219 10.5139Z" fill="#001926"/>
</svg>
